<svg id="visual" viewBox="0 0 960 540" width="960" height="540" xmlns="http://www.w3.org/2000/svg" xmlns:xlink="http://www.w3.org/1999/xlink" version="1.1"><rect x="0" y="0" width="960" height="540" fill="#031c32"></rect><path d="M0 472L17.8 471.8C35.7 471.7 71.3 471.3 106.8 471.3C142.3 471.3 177.7 471.7 213.2 475.7C248.7 479.7 284.3 487.3 320 488C355.7 488.7 391.3 482.3 426.8 478.5C462.3 474.7 497.7 473.3 533.2 472.7C568.7 472 604.3 472 640 476.7C675.7 481.3 711.3 490.7 746.8 492.2C782.3 493.7 817.7 487.3 853.2 482.8C888.7 478.3 924.3 475.7 942.2 474.3L960 473L960 541L942.2 541C924.3 541 888.7 541 853.2 541C817.7 541 782.3 541 746.8 541C711.3 541 675.7 541 640 541C604.3 541 568.7 541 533.2 541C497.7 541 462.3 541 426.8 541C391.3 541 355.7 541 320 541C284.3 541 248.7 541 213.2 541C177.7 541 142.3 541 106.8 541C71.3 541 35.7 541 17.8 541L0 541Z" fill="#193a78" stroke-linecap="round" stroke-linejoin="miter"></path></svg>