<!--?xml version="1.0" standalone="no"?-->              <svg id="sw-js-blob-svg" viewBox="0 0 100 100" xmlns="http://www.w3.org/2000/svg">                    <defs>                         <linearGradient id="sw-gradient" x1="0" x2="1" y1="1" y2="0">                            <stop id="stop1" stop-color="rgba(248, 117, 55, 1)" offset="0%"></stop>                            <stop id="stop2" stop-color="rgba(251, 168, 31, 1)" offset="100%"></stop>                        </linearGradient>                    </defs>                <path fill="url(#sw-gradient)" d="M25.4,-30.4C32,-24.7,35.9,-15.8,34.9,-8.1C33.9,-0.4,28.2,6.3,23.6,13C19,19.8,15.6,26.6,9.8,30C4.1,33.4,-4.1,33.5,-12.8,31.8C-21.6,30.1,-30.9,26.7,-36.9,19.7C-42.8,12.7,-45.3,2.1,-41.3,-5C-37.3,-12.1,-26.8,-15.8,-18.8,-21.2C-10.9,-26.7,-5.4,-34,2,-36.3C9.4,-38.7,18.8,-36.1,25.4,-30.4Z" width="100%" height="100%" transform="translate(50 50)" stroke-width="0" style="transition: all 0.3s ease 0s;"></path>              </svg>