 <svg id="sw-js-blob-svg" viewBox="0 0 100 100" xmlns="http://www.w3.org/2000/svg">
      <defs>
        <linearGradient id="sw-gradient" x1="0" x2="1" y1="1" y2="0">
          <stop id="stop1" stopColor="rgba(248, 117, 55, 1)" offset="0%" />
          <stop id="stop2" stopColor="rgba(251, 168, 31, 1)" offset="100%" />
        </linearGradient>

        <mask id="blob-mask">
          <path
            fill="white"
            d="M20.7,-22.7C28.1,-18.5,36.3,-13.2,38.9,-5.8C41.4,1.5,38.3,10.9,32.4,16.5C26.5,22,17.9,23.8,10.6,24.5C3.3,25.1,-2.8,24.7,-8.1,22.6C-13.4,20.5,-18,16.8,-22.3,11.7C-26.5,6.7,-30.5,0.3,-29.5,-5.2C-28.6,-10.8,-22.8,-15.5,-17,-20C-11.3,-24.5,-5.6,-28.7,0.5,-29.3C6.7,-29.9,13.3,-26.8,20.7,-22.7Z"
            width="100%"
            height="100%"
            transform="translate(50 50)"
            strokeWidth="0"
            style={{ transition: 'all 0.3s ease 0s' }}
          />
        </mask>
      </defs>

      <path
        fill="url(#sw-gradient)"
        d="M20.7,-22.7C28.1,-18.5,36.3,-13.2,38.9,-5.8C41.4,1.5,38.3,10.9,32.4,16.5C26.5,22,17.9,23.8,10.6,24.5C3.3,25.1,-2.8,24.7,-8.1,22.6C-13.4,20.5,-18,16.8,-22.3,11.7C-26.5,6.7,-30.5,0.3,-29.5,-5.2C-28.6,-10.8,-22.8,-15.5,-17,-20C-11.3,-24.5,-5.6,-28.7,0.5,-29.3C6.7,-29.9,13.3,-26.8,20.7,-22.7Z"
        width="100%"
        height="100%"
        transform="translate(50 50)"
        strokeWidth="0"
        style={{ transition: 'all 0.3s ease 0s' }}
        mask="url(#blob-mask)"
      />

      <image
        href="https://i.ibb.co/KjbGtF6/user.jpg"
        x="-25"
        y="-25"
        width="150"
        height="150"
        mask="url(#blob-mask)"
      />
    </svg>